<svg id="Warstwa_1" data-name="Warstwa 1" xmlns="http://www.w3.org/2000/svg" viewBox="0 0 430 430">
  <defs>
    <style>
      .cls-1 {
        fill: #4bb3fd;
      }

      .cls-2 {
        fill: #3a3347;
      }

      .cls-3 {
        fill: #121331;
      }
    </style>
  </defs>
  <g>
    <path class="cls-1" d="M74.53,271.58a20.78,20.78,0,1,1,0-41.55Z"/>
    <g>
      <path class="cls-1" d="M355.47,230a20.78,20.78,0,1,1,0,41.55Z"/>
      <path class="cls-2" d="M246.7,358.52h23.22a9.6,9.6,0,0,1,9.6,9.6v4.13a9.61,9.61,0,0,1-9.61,9.61H246.7a9.6,9.6,0,0,1-9.6-9.6v-4.13a9.6,9.6,0,0,1,9.6-9.6Z"/>
    </g>
    <rect class="cls-2" x="299.92" y="194.1" width="38.49" height="113.65" rx="15.84"/>
    <rect class="cls-2" x="89.94" y="194.1" width="38.49" height="113.65" rx="15.84"/>
    <path class="cls-3" d="M342.4,208.79l-.19-36.39C342.21,102,285,44.64,214.7,44.64A127.9,127.9,0,0,0,86.94,172.4V291.92a19.36,19.36,0,0,0,19.34,19.33h6.82a19.36,19.36,0,0,0,19.34-19.33v-82A19.37,19.37,0,0,0,113.1,190.6h-6.82a19.26,19.26,0,0,0-12.34,4.46V172.4A120.89,120.89,0,0,1,214.7,51.64c66.45,0,120.51,54.17,120.51,120.78l.12,22.54a19.26,19.26,0,0,0-12.21-4.36H316.3A19.37,19.37,0,0,0,297,209.94v82a19.36,19.36,0,0,0,19.34,19.33h6.82a19.36,19.36,0,0,0,19.34-19.33v-82C342.46,209.55,342.42,209.17,342.4,208.79ZM106.28,197.6h6.82a12.36,12.36,0,0,1,12.34,12.34v82a12.35,12.35,0,0,1-12.34,12.33h-6.82a12.35,12.35,0,0,1-12.34-12.33v-82A12.36,12.36,0,0,1,106.28,197.6Zm229.18,94.32a12.35,12.35,0,0,1-12.34,12.33H316.3A12.35,12.35,0,0,1,304,291.92v-82A12.36,12.36,0,0,1,316.3,197.6h6.82a12.36,12.36,0,0,1,12.28,11.18l0,3.38a2.33,2.33,0,0,0,0,.38Z"/>
    <path class="cls-3" d="M74.53,275.08a24.28,24.28,0,1,1,0-48.55A3.5,3.5,0,0,1,78,230v41.55A3.5,3.5,0,0,1,74.53,275.08ZM71,233.88a17.28,17.28,0,0,0,0,33.85Z"/>
    <path class="cls-3" d="M379.75,250.8a24.3,24.3,0,0,0-24.28-24.27A3.5,3.5,0,0,0,352,230v41l-22.75,64c-6.45,19-20.19,31.71-29,31.71H283a13.13,13.13,0,0,0-13-11.67H246.7a13.12,13.12,0,0,0-13.1,13.1v4.14a13.12,13.12,0,0,0,13.1,13.1h23.22a13.13,13.13,0,0,0,13-11.67h17.29c13,0,28.66-16,35.59-36.41L358,275A24.31,24.31,0,0,0,379.75,250.8ZM276,372.26a6.11,6.11,0,0,1-6.11,6.1H246.7a6.11,6.11,0,0,1-6.1-6.1v-4.14a6.11,6.11,0,0,1,6.1-6.1h23.22a6.11,6.11,0,0,1,6.11,6.1ZM359,267.73V233.88a17.28,17.28,0,0,1,0,33.85Z"/>
  </g>
</svg>
