<?xml version="1.0" standalone="no"?>
<!DOCTYPE svg PUBLIC "-//W3C//DTD SVG 20010904//EN"
 "http://www.w3.org/TR/2001/REC-SVG-20010904/DTD/svg10.dtd">
<svg version="1.0" xmlns="http://www.w3.org/2000/svg"
 width="133.000000pt" height="63.000000pt" viewBox="0 0 133.000000 63.000000"
 preserveAspectRatio="xMidYMid meet">

<g transform="translate(0.000000,63.000000) scale(0.100000,-0.100000)"
fill="#000000" stroke="none">
<path d="M702 553 c3 -14 15 -19 64 -21 l60 -3 30 -117 c16 -64 30 -122 32
-129 2 -6 -13 -19 -33 -28 -37 -18 -67 -53 -79 -92 -7 -22 -13 -23 -96 -23
l-88 0 -22 45 c-27 55 -82 88 -138 83 -53 -4 -46 -20 16 -34 63 -14 78 -27 97
-80 l13 -39 123 0 123 0 7 35 c9 41 50 80 85 80 13 0 27 6 30 14 4 11 -34 176
-62 269 -5 15 2 17 50 17 49 0 56 2 56 20 0 19 -7 20 -136 20 -124 0 -135 -2
-132 -17z"/>
<path d="M39 179 c-8 -16 -8 -28 0 -45 9 -20 18 -24 51 -24 56 0 50 -18 -7
-22 -36 -2 -49 -7 -51 -21 -3 -14 4 -17 45 -17 53 0 93 21 93 49 0 27 -21 41
-62 41 -27 0 -38 4 -38 15 0 11 12 15 50 15 38 0 50 4 50 15 0 12 -13 15 -60
15 -50 0 -61 -3 -71 -21z"/>
<path d="M225 175 c-14 -13 -25 -31 -25 -39 0 -30 23 -65 49 -76 33 -13 81 2
81 25 0 12 -8 14 -39 9 -33 -5 -41 -3 -50 14 -21 39 17 75 57 53 11 -6 23 -6
33 0 12 8 11 12 -5 24 -30 23 -73 18 -101 -10z"/>
<path d="M390 178 c-11 -12 -20 -35 -20 -53 0 -76 107 -97 139 -28 16 36 14
51 -14 78 -31 32 -77 33 -105 3z m80 -22 c20 -25 8 -61 -21 -64 -36 -4 -55 21
-41 53 13 28 43 33 62 11z"/>
<path d="M865 175 c-48 -47 -19 -119 48 -119 47 0 77 27 77 69 0 67 -78 98
-125 50z m79 -21 c31 -30 8 -69 -36 -62 -26 3 -37 41 -18 64 16 18 35 18 54
-2z"/>
<path d="M1049 179 c-48 -48 5 -146 68 -123 40 14 37 40 -4 36 -19 -2 -33 1
-33 7 0 6 20 11 45 11 41 0 45 2 45 25 0 57 -79 86 -121 44z m71 -24 c0 -8 -9
-15 -20 -15 -11 0 -20 7 -20 15 0 8 9 15 20 15 11 0 20 -7 20 -15z"/>
<path d="M1235 175 c-19 -18 -25 -35 -25 -69 0 -42 13 -66 28 -52 3 4 9 28 12
54 4 36 10 49 28 57 12 5 22 15 22 22 0 22 -39 14 -65 -12z"/>
</g>
</svg>
