<?xml version="1.0" encoding="utf-8"?>
<!-- Generator: Adobe Illustrator 26.0.2, SVG Export Plug-In . SVG Version: 6.00 Build 0)  -->
<svg version="1.1" id="Warstwa_3" xmlns="http://www.w3.org/2000/svg" xmlns:xlink="http://www.w3.org/1999/xlink" x="0px" y="0px"
	 viewBox="0 0 430 430" style="enable-background:new 0 0 430 430;" xml:space="preserve">
<style type="text/css">
	.st0{fill:#F9C9C0;}
	.st1{fill:#3A3347;}
	.st2{fill:#646e78;}
	.st3{opacity:0.5;fill:#646e78;}
	.st4{fill:#121331;}
	.st5{fill:#92140C;}
	.st6{fill:#FFC738;}
	.st7{fill:#EBE6EF;}
	.st8{opacity:0.5;fill:#EBE6EF;}
	.st9{opacity:0.5;fill:#3A3347;}
	.st10{opacity:0.5;fill:#FFC738;}
	.st11{opacity:0.5;}
	.st12{fill:#9ce5f4;}
	.st13{opacity:0.5;fill:#9ce5f4;}
	.st14{fill:#B26836;}
	.st15{fill:#2CA58D;}
	.st16{opacity:0.5;fill:#2CA58D;}
	.st17{fill:#F24C00;}
	.st18{opacity:0.5;fill:#F24C00;}
	.st19{fill:none;stroke:#121331;stroke-width:7;stroke-linecap:round;stroke-linejoin:round;stroke-miterlimit:10;}
	.st20{opacity:0.5;fill:#92140C;}
	.st21{opacity:0.5;fill:#F9C9C0;}
	.st22{opacity:0.5;fill:#B26836;}
	.st23{fill:#F28BA8;}
	.st24{opacity:0.5;fill:#F28BA8;}
	.st25{fill-opacity:0;}
</style>
<path class="st12" d="M129.28,340.85h118.83c7.16,0,13.75-3.93,17.14-10.24l12.27-22.79H128.83L129.28,340.85z"/>
<circle class="st2" cx="339.56" cy="324.78" r="35.63"/>
<circle class="st2" cx="97.47" cy="324.78" r="35.63"/>
<path class="st3" d="M364.33,350.38c-6.4,6.21-15.14,10.03-24.77,10.03c-19.68,0-35.63-15.95-35.63-35.63
	c0-16.34,11-30.12,25.99-34.32c-6.7,6.47-10.86,15.55-10.86,25.6c0,19.68,15.96,35.64,35.63,35.64
	C358.03,351.7,361.26,351.24,364.33,350.38z"/>
<path class="st3" d="M122.25,350.38c-6.41,6.21-15.15,10.03-24.78,10.03c-19.68,0-35.63-15.95-35.63-35.63
	c0-16.34,11-30.12,25.99-34.32c-6.7,6.47-10.86,15.55-10.86,25.6c0,19.68,15.95,35.64,35.63,35.64
	C115.94,351.7,119.18,351.24,122.25,350.38z"/>
<g>
	<path class="st4" d="M339.56,363.91c-21.58,0-39.13-17.56-39.13-39.13c0-21.58,17.55-39.13,39.13-39.13s39.13,17.56,39.13,39.13
		C378.7,346.36,361.14,363.91,339.56,363.91z M339.56,292.65c-17.72,0-32.13,14.42-32.13,32.13c0,17.72,14.42,32.13,32.13,32.13
		c17.72,0,32.13-14.42,32.13-32.13C371.7,307.06,357.28,292.65,339.56,292.65z"/>
	<path class="st4" d="M277.51,311.32c-0.64,0-1.28-0.17-1.86-0.54c-1.64-1.03-2.13-3.19-1.1-4.83l41.84-66.6
		c1.03-1.64,3.19-2.13,4.83-1.1c1.64,1.03,2.13,3.19,1.1,4.83l-41.84,66.6C279.82,310.74,278.68,311.32,277.51,311.32z"/>
	<path class="st4" d="M337.71,328.28c-1.61,0-3.06-1.11-3.42-2.75L283.73,95.38c-1.24-5.67,0.13-11.51,3.76-16.03
		c3.64-4.52,9.05-7.11,14.85-7.11h27.92c1.93,0,3.5,1.57,3.5,3.5s-1.57,3.5-3.5,3.5h-27.92c-3.67,0-7.09,1.64-9.39,4.5
		c-2.3,2.86-3.17,6.55-2.38,10.14l50.56,230.15c0.41,1.89-0.78,3.75-2.67,4.17C338.21,328.25,337.95,328.28,337.71,328.28z"/>
	<path class="st4" d="M248.11,344.35H129.28c-1.93,0-3.5-1.57-3.5-3.5s1.57-3.5,3.5-3.5h118.83c5.89,0,11.27-3.22,14.06-8.4
		l9.49-17.63H128.83c-1.93,0-3.5-1.57-3.5-3.5s1.57-3.5,3.5-3.5h148.69c1.23,0,2.37,0.65,3,1.71s0.66,2.37,0.08,3.45l-12.27,22.79
		C264.32,339.72,256.58,344.35,248.11,344.35z"/>
	<path class="st4" d="M97.47,363.91c-21.58,0-39.13-17.56-39.13-39.13c0-21.58,17.55-39.13,39.13-39.13s39.13,17.56,39.13,39.13
		C136.6,346.36,119.05,363.91,97.47,363.91z M97.47,292.65c-17.72,0-32.13,14.42-32.13,32.13c0,17.72,14.42,32.13,32.13,32.13
		c17.72,0,32.13-14.42,32.13-32.13C129.6,307.06,115.19,292.65,97.47,292.65z"/>
	<path class="st4" d="M133.1,328.28H97.47c-1.93,0-3.5-1.57-3.5-3.5s1.57-3.5,3.5-3.5h35.63c1.93,0,3.5,1.57,3.5,3.5
		S135.04,328.28,133.1,328.28z"/>
</g>
</svg>
