<svg xmlns="http://www.w3.org/2000/svg" viewBox="0 0 430 430">
  <defs>
    <style>
      .cls-1 {
        isolation: isolate;
      }

      .cls-2 {
        fill: #646e78;
      }

      .cls-3 {
        mix-blend-mode: multiply;
        opacity: 0.5;
      }

      .cls-4 {
        fill: #121331;
      }
    </style>
  </defs>
  <g class="cls-1">
    <g id="Warstwa_1" data-name="Warstwa 1">
      <g>
        <g>
          <rect class="cls-2" x="120" y="44.75" width="190" height="344" rx="10.64"/>
          <g class="cls-3">
            <path class="cls-2" d="M310,298.31V55.39a10.64,10.64,0,0,0-10.64-10.64H150.61Z"/>
            <path class="cls-2" d="M120,132.92V378.11a10.64,10.64,0,0,0,10.64,10.64H279.48Z"/>
          </g>
          <path class="cls-4" d="M259.5,371.25h-89a3.5,3.5,0,0,1,0-7h89a3.5,3.5,0,0,1,0,7Z"/>
        </g>
        <path class="cls-4" d="M299.36,41.25H130.64A14.15,14.15,0,0,0,116.5,55.39V378.11a14.15,14.15,0,0,0,14.14,14.14H299.36a14.15,14.15,0,0,0,14.14-14.14V55.39A14.15,14.15,0,0,0,299.36,41.25Zm7.14,336.86a7.14,7.14,0,0,1-7.14,7.14H130.64a7.14,7.14,0,0,1-7.14-7.14V55.39a7.14,7.14,0,0,1,7.14-7.14h35.69a29.22,29.22,0,0,1,6.36,8.9c2.25,5.19,6.26,6.75,7.44,6.75h69.75c1.17,0,5.18-1.56,7.43-6.75a29.22,29.22,0,0,1,6.36-8.9h35.69a7.14,7.14,0,0,1,7.14,7.14Z"/>
      </g>
    </g>
  </g>
</svg>
